<svg width="312" height="176" viewBox="0 0 312 176" fill="none" xmlns="http://www.w3.org/2000/svg"><g filter="url(#filter0_b_2256_11083)"><path d="M129.357 0H0v152c0 13.255 10.745 24 24 24h264c13.255 0 24-10.745 24-24V0H180.067a4 4 0 00-3.5 2.064l-8.333 15.063c-1.309 2.366-4.538 2.779-6.4.819l-4.619-4.863a4 4 0 00-6.082.33l-3.456 4.533c-1.771 2.322-5.353 2.026-6.717-.556l-8.067-15.26A4 4 0 00129.357 0z" fill="#919EAB"/></g><defs><filter id="filter0_b_2256_11083" x="-20" y="-20" width="352" height="216" filterUnits="userSpaceOnUse" color-interpolation-filters="sRGB"><feFlood flood-opacity="0" result="BackgroundImageFix"/><feGaussianBlur in="BackgroundImageFix" stdDeviation="10"/><feComposite in2="SourceAlpha" operator="in" result="effect1_backgroundBlur_2256_11083"/><feBlend in="SourceGraphic" in2="effect1_backgroundBlur_2256_11083" result="shape"/></filter></defs></svg>