<svg width="33" height="32" viewBox="0 0 33 32" fill="none" xmlns="http://www.w3.org/2000/svg"><g clip-path="url(#clip0_2612_3312)"><path d="M32.267 16c0-8.837-7.164-16-16-16-8.837 0-16 7.163-16 16 0 7.986 5.85 14.605 13.5 15.806V20.625H9.704V16h4.063v-3.525c0-4.01 2.388-6.225 6.043-6.225 1.75 0 3.582.313 3.582.313V10.5h-2.018c-1.988 0-2.607 1.233-2.607 2.499V16h4.437l-.71 4.625h-3.727v11.18c7.649-1.2 13.5-7.819 13.5-15.805z" fill="#3B82F6"/><path d="M22.495 20.625l.71-4.625h-4.438v-3.001c0-1.266.62-2.499 2.607-2.499h2.018V6.562S21.56 6.25 19.81 6.25c-3.655 0-6.043 2.215-6.043 6.225V16H9.704v4.625h4.063v11.18a16.121 16.121 0 005 0v-11.18h3.728z" fill="#fff"/></g><defs><clipPath id="clip0_2612_3312"><path fill="#fff" transform="translate(.267)" d="M0 0h32v32H0z"/></clipPath></defs></svg>