<svg width="32" height="32" viewBox="0 0 32 32" fill="none" xmlns="http://www.w3.org/2000/svg"><path d="M30.08 16.334c0-1.04-.093-2.04-.267-3H16v5.673h7.893c-.34 1.833-1.373 3.386-2.926 4.426v3.68h4.74c2.773-2.553 4.373-6.313 4.373-10.78z" fill="#4285F4"/><path d="M16 30.667c3.96 0 7.28-1.314 9.707-3.554l-4.74-3.68c-1.314.88-2.994 1.4-4.967 1.4-3.82 0-7.053-2.58-8.207-6.046h-4.9v3.8c2.414 4.793 7.374 8.08 13.107 8.08z" fill="#34A853"/><path d="M7.793 18.787A8.816 8.816 0 017.333 16c0-.966.167-1.906.46-2.786v-3.8h-4.9A14.66 14.66 0 001.333 16c0 2.367.567 4.607 1.56 6.587l4.9-3.8z" fill="#FBBC05"/><path d="M16 7.167c2.153 0 4.087.74 5.607 2.193l4.206-4.206c-2.54-2.367-5.86-3.82-9.813-3.82-5.733 0-10.693 3.286-13.107 8.08l4.9 3.8C8.947 9.746 12.18 7.167 16 7.167z" fill="#EA4335"/></svg>