<svg width="24" height="24" viewBox="0 0 24 24" fill="none" xmlns="http://www.w3.org/2000/svg"><path d="M12 16.666c0-3.312 2.688-6 6-6 3.313 0 6 2.688 6 6a6 6 0 01-12 0zM18.63 14a.646.646 0 00-.668-.667c-.329 0-.666.3-.666.667v2.666c0 .367.337.667.666.667H20c.367 0 .667-.3.667-.666 0-.367-.3-.667-.667-.667h-1.37v-2z" fill="#C9C5D0"/><path opacity=".4" d="M0 2.667c0-.737.597-1.334 1.333-1.334h13.334a1.333 1.333 0 110 2.667v.457a6.668 6.668 0 01-1.954 4.714L9.887 12l1.495 1.462a7.492 7.492 0 00-.716 3.205 7.335 7.335 0 003.116 6H1.333a1.333 1.333 0 110-2.667v-.458c0-1.767.703-3.463 1.953-4.713L6.112 12 3.286 9.172a6.667 6.667 0 01-1.953-4.714V4A1.333 1.333 0 010 2.667zM4 4v.457c0 .792.233 1.56.63 2.21h6.703A3.98 3.98 0 0012 4.457V4H4z" fill="#C9C5D0"/></svg>