<svg id="Layer_1" data-name="Layer 1" xmlns="http://www.w3.org/2000/svg" viewBox="0 0 26 26"><defs><style>.cls-1{fill:#5e0910;}.cls-2{fill:none;stroke:#451217;stroke-miterlimit:10;stroke-width:0;}.cls-3{fill:#2c1a1d;}.cls-4{fill:#c79731;}</style></defs><rect class="cls-1" x="5" y="4" width="16" height="16"/><path class="cls-2" d="M20.97307-3.94685a.03081.03081,0,0,0-.03071-.03071H-4.94847a.03081.03081,0,0,0-.0307.03071V21.949a.03081.03081,0,0,0,.0307.0307H20.94236a.03081.03081,0,0,0,.03071-.0307V-3.94685" transform="translate(5 4)"/><path class="cls-3" d="M-5-4H21V22H-5V-4m25.97307.05315a.03081.03081,0,0,0-.03071-.03071H-4.94847a.03081.03081,0,0,0-.0307.03071V21.949a.03081.03081,0,0,0,.0307.0307H20.94236a.03081.03081,0,0,0,.03071-.0307V-3.94685Z" transform="translate(5 4)"/><path class="cls-4" d="M10.00261,10.21154V6.1909a.01457.01457,0,0,1,.02527-.01011A5.56636,5.56636,0,0,0,13.814,8.03943q.32028.02625.63744.03383a.01294.01294,0,0,1,.01011.02062,6.939,6.939,0,0,0-1.37794,3.855.01988.01988,0,0,1-.01945.01867l-6.60034-.00039a.01674.01674,0,0,1-.01905-.01906q-.00292-2.78271.00039-5.55843a1.79041,1.79041,0,0,0-.04706-.45075,2.47943,2.47943,0,0,0-.80623-1.2426.02733.02733,0,0,1,.00622-.04511,8.61244,8.61244,0,0,0,1.47556-.90268,2.01407,2.01407,0,0,0,.77123-1.0567.02382.02382,0,0,0-.01362-.02994.34494.34494,0,1,1,.266.00311.0242.0242,0,0,0-.01128.02995,2.67172,2.67172,0,0,0,1.1232,1.23481A13.10681,13.10681,0,0,0,10.451,4.657a.01857.01857,0,0,1,.00194.0315A2.09673,2.09673,0,0,0,9.66385,5.716a1.4691,1.4691,0,0,0-.12367.57133l.0035.1369q-.00933,1.8884,0,3.79a.02158.02158,0,0,0,.02139.02139l.41226.00117a.02523.02523,0,0,0,.02528-.02528M8.3392,5.14237a.3617.3617,0,1,0-.36169.3617.36151.36151,0,0,0,.36169-.3617M8.23964,6.45614a.26291.26291,0,1,0-.26291.26291.26308.26308,0,0,0,.26291-.26291m-.10112,1.2531a.16179.16179,0,1,0-.16179.16179.16166.16166,0,0,0,.16179-.16179Z" transform="translate(5 4)"/><path class="cls-1" d="M8.3392,5.14237a.3617.3617,0,1,1-.36169-.36169.36151.36151,0,0,1,.36169.36169Z" transform="translate(5 4)"/><path class="cls-4" d="M2.13594,8.05538A5.679,5.679,0,0,0,5.94968,6.19206a.01078.01078,0,0,1,.01906.007l-.00039,5.7455A.02854.02854,0,0,1,5.94,11.973l-3.0149.00778a.01958.01958,0,0,1-.01983-.01789A7.37637,7.37637,0,0,0,1.54129,8.14171c-.00973-.01283-.00623-.02022.00972-.02178q.29577-.0315.58493-.06455Z" transform="translate(5 4)"/><path class="cls-1" d="M8.23964,6.45614a.26291.26291,0,1,1-.26291-.26291.26308.26308,0,0,1,.26291.26291Z" transform="translate(5 4)"/><path class="cls-1" d="M8.13852,7.70924a.16179.16179,0,1,1-.16179-.16179.16167.16167,0,0,1,.16179.16179Z" transform="translate(5 4)"/><path class="cls-4" d="M13.093,13.277a.01925.01925,0,0,1-.01944.01944H2.90484a.01926.01926,0,0,1-.01945-.01944v-.85562a.01926.01926,0,0,1,.01945-.01945H13.07351a.01926.01926,0,0,1,.01944.01945V13.277M3.8573,12.86747a.21.21,0,1,0-.21.21.21014.21014,0,0,0,.21-.21m.8704.00039a.20963.20963,0,1,0-.20963.20962.20947.20947,0,0,0,.20963-.20962m.8704.00039a.20963.20963,0,1,0-.20963.20962.20946.20946,0,0,0,.20963-.20962m.872-.00039a.20963.20963,0,1,0-.20963.20962.20947.20947,0,0,0,.20963-.20962m.86923.00077a.20885.20885,0,1,0-.20885.20885.20863.20863,0,0,0,.20885-.20885m.87273-.00077a.20963.20963,0,1,0-.20962.20962.20947.20947,0,0,0,.20962-.20962m.87079-.00039a.20924.20924,0,1,0-.20924.20923.2093.2093,0,0,0,.20924-.20923m.86885.00039a.20885.20885,0,1,0-.20885.20884.20864.20864,0,0,0,.20885-.20884m.87351,0a.20963.20963,0,1,0-.20962.20962.20947.20947,0,0,0,.20962-.20962m.8704.00039a.20924.20924,0,1,0-.20924.20923.20931.20931,0,0,0,.20924-.20923m.87157,0a.21.21,0,1,0-.21.21.21013.21013,0,0,0,.21-.21Z" transform="translate(5 4)"/><path class="cls-1" d="M3.8573,12.86747a.21.21,0,1,1-.21-.21.21013.21013,0,0,1,.21.21Z" transform="translate(5 4)"/><path class="cls-1" d="M4.7277,12.86786a.20963.20963,0,1,1-.20963-.20963.20947.20947,0,0,1,.20963.20963Z" transform="translate(5 4)"/><path class="cls-1" d="M5.5981,12.86825a.20963.20963,0,1,1-.20963-.20963.20947.20947,0,0,1,.20963.20963Z" transform="translate(5 4)"/><path class="cls-1" d="M6.47006,12.86786a.20963.20963,0,1,1-.20963-.20963.20947.20947,0,0,1,.20963.20963Z" transform="translate(5 4)"/><path class="cls-1" d="M7.33929,12.86863a.20885.20885,0,1,1-.20885-.20884.20864.20864,0,0,1,.20885.20884Z" transform="translate(5 4)"/><path class="cls-1" d="M8.212,12.86786a.20963.20963,0,1,1-.20962-.20963.20947.20947,0,0,1,.20962.20963Z" transform="translate(5 4)"/><path class="cls-1" d="M9.08281,12.86747a.20924.20924,0,1,1-.20924-.20924.20929.20929,0,0,1,.20924.20924Z" transform="translate(5 4)"/><path class="cls-1" d="M9.95166,12.86786a.20885.20885,0,1,1-.20885-.20886.20864.20864,0,0,1,.20885.20886Z" transform="translate(5 4)"/><path class="cls-1" d="M10.82517,12.86786a.20963.20963,0,1,1-.20962-.20963.20947.20947,0,0,1,.20962.20963Z" transform="translate(5 4)"/><path class="cls-1" d="M11.69557,12.86825a.20924.20924,0,1,1-.20924-.20925.2093.2093,0,0,1,.20924.20925Z" transform="translate(5 4)"/><path class="cls-1" d="M12.56714,12.86825a.21.21,0,1,1-.21-.21.21013.21013,0,0,1,.21.21Z" transform="translate(5 4)"/><path class="cls-4" d="M13.09218,13.97277A.02706.02706,0,0,1,13.065,14H2.92039a.02706.02706,0,0,1-.02722-.02723v-.12134a.02705.02705,0,0,1,.02722-.02722H13.065a.02706.02706,0,0,1,.02723.02722v.12134Z" transform="translate(5 4)"/></svg>