<svg id="Layer_1" data-name="Layer 1" xmlns="http://www.w3.org/2000/svg" xmlns:xlink="http://www.w3.org/1999/xlink" viewBox="0 0 3627.67623 716"><defs><style>.cls-1{fill:url(#linear-gradient);}.cls-2{fill:url(#linear-gradient-2);}.cls-3{fill:url(#linear-gradient-3);}.cls-4{font-size:221.90187px;fill:#fff;font-family:EloquiaDisplay-ExtraBold, Eloquia Display;font-weight:800;}.cls-5{font-family:EloquiaText-ExtraLight, Eloquia Text;font-weight:200;}</style><linearGradient id="linear-gradient" x1="189.06264" y1="525.01635" x2="787.22244" y2="525.01635" gradientUnits="userSpaceOnUse"><stop offset="0" stop-color="#d2fffe"/><stop offset="0.01008" stop-color="#b7fdfe"/><stop offset="0.02655" stop-color="#90fbfe"/><stop offset="0.0437" stop-color="#71f9fe"/><stop offset="0.06143" stop-color="#58f7fe"/><stop offset="0.08" stop-color="#47f6fe"/><stop offset="0.09994" stop-color="#3cf5fe"/><stop offset="0.12369" stop-color="#39f5fe"/><stop offset="0.20075" stop-color="#38cdfe"/><stop offset="0.31499" stop-color="#3697ff"/><stop offset="0.40065" stop-color="#3476ff"/><stop offset="0.44726" stop-color="#3469ff"/><stop offset="0.52456" stop-color="#3869ff"/><stop offset="0.59457" stop-color="#436bfd"/><stop offset="0.66175" stop-color="#556dfb"/><stop offset="0.7272" stop-color="#6f70f7"/><stop offset="0.79141" stop-color="#9074f3"/><stop offset="0.85383" stop-color="#b978ed"/><stop offset="0.8746" stop-color="#c87aeb"/><stop offset="0.90277" stop-color="#ca7eea"/><stop offset="0.93105" stop-color="#d28ae8"/><stop offset="0.95939" stop-color="#de9ee4"/><stop offset="0.98762" stop-color="#eebade"/><stop offset="1" stop-color="#f7c9db"/></linearGradient><linearGradient id="linear-gradient-2" x1="3497.7561" y1="989.01111" x2="3497.7561" y2="223.17355" gradientTransform="translate(3924.66131 1085.13353) rotate(180)" gradientUnits="userSpaceOnUse"><stop offset="0" stop-color="#d2fffe"/><stop offset="0.00832" stop-color="#b7fdfe"/><stop offset="0.02202" stop-color="#90fbfe"/><stop offset="0.03628" stop-color="#71f9fe"/><stop offset="0.05102" stop-color="#58f7fe"/><stop offset="0.06644" stop-color="#47f6fe"/><stop offset="0.083" stop-color="#3cf5fe"/><stop offset="0.10267" stop-color="#39f5fe"/><stop offset="0.13439" stop-color="#38d0fe"/><stop offset="0.16877" stop-color="#37b1fe"/><stop offset="0.20625" stop-color="#3696ff"/><stop offset="0.2473" stop-color="#3582ff"/><stop offset="0.29375" stop-color="#3474ff"/><stop offset="0.35014" stop-color="#346cff"/><stop offset="0.44424" stop-color="#3469ff"/><stop offset="0.53125" stop-color="#496bfc"/><stop offset="0.7104" stop-color="#7e71f5"/><stop offset="0.93442" stop-color="#c87aeb"/><stop offset="0.95719" stop-color="#ca77e9"/><stop offset="0.97107" stop-color="#d26fe1"/><stop offset="0.98257" stop-color="#e061d3"/><stop offset="0.99271" stop-color="#f34cc1"/><stop offset="0.996" stop-color="#fb44b9"/></linearGradient><linearGradient id="linear-gradient-3" x1="514.97591" y1="910.25833" x2="514.97591" y2="184.08771" gradientUnits="userSpaceOnUse"><stop offset="0" stop-color="#fefbff"/><stop offset="0.0184" stop-color="#d6dbff"/><stop offset="0.04279" stop-color="#a7b7ff"/><stop offset="0.06803" stop-color="#7f98ff"/><stop offset="0.09377" stop-color="#5e7eff"/><stop offset="0.12014" stop-color="#446aff"/><stop offset="0.1474" stop-color="#325cff"/><stop offset="0.17613" stop-color="#2754ff"/><stop offset="0.20873" stop-color="#2451ff"/><stop offset="0.28363" stop-color="#2b50ff"/><stop offset="0.38888" stop-color="#3d4fff"/><stop offset="0.51214" stop-color="#5b4cfe"/><stop offset="0.64909" stop-color="#8548fe"/><stop offset="0.79553" stop-color="#ba43fd"/><stop offset="0.86081" stop-color="#d441fd"/><stop offset="1" stop-color="#fe58b2"/></linearGradient></defs><path class="cls-1" d="M622.84895,629.06846a105.6369,105.6369,0,0,1-22.25081-2.37962l-82.66429-17.44332a226.20842,226.20842,0,0,0-93.98658,0L341.188,626.70907a105.202,105.202,0,0,1-88.61491-21.44463A103.13993,103.13993,0,0,1,252.584,444.727a105.22878,105.22878,0,0,1,88.65227-21.42595l82.72032,17.45576a226.1716,226.1716,0,0,0,93.9679,0l82.76857-17.46588a105.69362,105.69362,0,0,1,87.19632,20.27738A103.14782,103.14782,0,0,1,727.61464,521.38c1.27308,31.69149-12.19071,61.89668-36.94564,82.72188A105.06588,105.06588,0,0,1,622.84895,629.06846ZM470.94056,558.086a273.352,273.352,0,0,1,56.53668,5.93894l82.75924,17.46355a58.90352,58.90352,0,0,0,50.68022-12.7541A56.47151,56.47151,0,0,0,681.42909,523.088a57.11451,57.11451,0,0,0-22.0407-43.13748,59.59329,59.59329,0,0,0-49.15191-11.439l-82.76857,17.46588a272.09,272.09,0,0,1-113.05469,0l-82.767-17.46588A59.246,59.246,0,0,0,281.7169,480.605a56.92568,56.92568,0,0,0-.00778,88.78455,59.24853,59.24853,0,0,0,49.88806,12.10978l82.80748-17.47444A273.445,273.445,0,0,1,470.94056,558.086Z" transform="translate(-111.16166 -167)"/><path class="cls-2" d="M742.23439,600.3053a153.35587,153.35587,0,0,1-197.68,63.82681,187.96211,187.96211,0,0,0-157.28.11157c-4.38982,2.02021-22.92937,8.36545-29.41925,10.01876-.29259.06877-.58362.14542-.8766.21263.21049-.047.41748-.10136.62759-.14921-.2247.05573-.43694.10661-.62759.14921-.78089.17538-5.40182,1.11949-5.56192,1.1475-41.22846,7.20346-83.28566-7.50626-84.60854-8.0003a147.88459,147.88459,0,0,1-31.58663-16.47858h-.01585a178.83607,178.83607,0,0,1-33.51511-31.55491c-.11157-.12743-.20719-.255-.31875-.39842-70.02625-86.60045-30.93326-217.99927,45.61107-309.03018.74908-.89246,1.49806-1.78491,2.24714-2.66142a372.48606,372.48606,0,0,1,28.41522-29.7381c.22314-.223.46223-.44618.70113-.66931a336.76585,336.76585,0,0,1,385.49513-50.53559,358.17844,358.17844,0,0,0-402.28012,4.56344l.007-.01439c-.22431.15738-.44006.32264-.66378.48042a359.77317,359.77317,0,0,0-43.86692,36.199c-1.48211,1.43435-2.96422,2.88455-4.41452,4.35081a316.76246,316.76246,0,0,0-24.319,27.40691C85.11558,427.38806,80.28027,615.26617,205.28716,742.6202a318.8912,318.8912,0,0,0,60.33072,49.7084l.00136.00087v-.0001a314.78009,314.78009,0,0,0,169.35384,49.227,318.649,318.649,0,0,0,35.93753-2.024C603.425,824.48805,711.3808,727.30556,742.47348,600.3053c.06362-.23909.12743-.494.17528-.749C742.52115,599.81127,742.378,600.06621,742.23439,600.3053Z" transform="translate(-111.16166 -167)"/><path class="cls-3" d="M199.64673,449.6947a153.35587,153.35587,0,0,1,197.68-63.82681,187.96213,187.96213,0,0,0,157.28-.11157c4.38981-2.02021,22.92936-8.36545,29.41924-10.01876.29259-.06877.58362-.14542.8766-.21263-.21049.047-.41748.10136-.62759.14921.2247-.05573.43694-.10661.62759-.14921.78089-.17538,5.40182-1.11949,5.56192-1.1475,41.22846-7.20346,83.28566,7.50626,84.60854,8.0003a147.88459,147.88459,0,0,1,31.58663,16.47858h.01585a178.83607,178.83607,0,0,1,33.51511,31.55491c.11157.12743.20719.255.31876.39842,70.02624,86.60045,30.93325,217.99927-45.61108,309.03018-.74908.89246-1.49806,1.78491-2.24714,2.66142a372.48606,372.48606,0,0,1-28.41522,29.7381c-.22314.223-.46223.44618-.70113.66931a336.76585,336.76585,0,0,1-385.49513,50.53559,358.17844,358.17844,0,0,0,402.28012-4.56344l-.007.01439c.2243-.15738.44005-.32264.66377-.48042a359.77317,359.77317,0,0,0,43.86692-36.199c1.48211-1.43435,2.96422-2.88455,4.41452-4.35081a316.76425,316.76425,0,0,0,24.319-27.40691C856.76554,622.61194,861.60085,434.73383,736.594,307.3798a318.8912,318.8912,0,0,0-60.33072-49.7084l-.00136-.00087v.0001a314.78009,314.78009,0,0,0-169.35384-49.227,318.64913,318.64913,0,0,0-35.93753,2.024C338.4561,225.512,230.50032,322.69444,199.40764,449.6947c-.06362.23909-.12743.494-.17528.749C199.36,450.18873,199.50316,449.93379,199.64673,449.6947Z" transform="translate(-111.16166 -167)"/><text class="cls-4" transform="translate(837.28121 293.64893)">PixelScribe<tspan class="cls-5"><tspan x="0" y="266.28271">Dive into Word to Pixel Tech</tspan></tspan></text></svg>