<?xml version="1.0" encoding="utf-8"?>
<!-- Generator: Adobe Illustrator 24.3.0, SVG Export Plug-In . SVG Version: 6.00 Build 0)  -->
<svg version="1.1" id="Layer_1" xmlns="http://www.w3.org/2000/svg" xmlns:xlink="http://www.w3.org/1999/xlink" x="0px" y="0px"
	 viewBox="0 0 200 200" style="enable-background:new 0 0 200 200;" xml:space="preserve">
<style type="text/css">
	.st0{fill:#4949E7;}
</style>
<g transform="rotate(0 50 50)">
	<path class="st0" d="M100,85.7L100,85.7c0.9,0,1.7,1.5,1.7,3.3l0,0c0,1.8-0.7,3.3-1.7,3.3l0,0c-0.9,0-1.7-1.5-1.7-3.3l0,0
		C98.3,87.2,99.1,85.7,100,85.7z	">
<animate  accumulate="none" additive="replace" attributeName="opacity" begin="-0.9166666666666666s" calcMode="linear" dur="1s" fill="remove" keyTimes="0;1" repeatCount="indefinite" restart="always" values="1;0">
			</animate>
	</path>
</g>
<g transform="rotate(30 50 50)">
	<path class="st0" d="M118.3,54L118.3,54c0.9,0,1.7,1.5,1.7,3.3l0,0c0,1.8-0.7,3.3-1.7,3.3l0,0c-0.9,0-1.7-1.5-1.7-3.3l0,0
		C116.7,55.5,117.4,54,118.3,54z	">
<animate  accumulate="none" additive="replace" attributeName="opacity" begin="-0.8333333333333334s" calcMode="linear" dur="1s" fill="remove" keyTimes="0;1" repeatCount="indefinite" restart="always" values="1;0">
			</animate>
	</path>
</g>
<g transform="rotate(60 50 50)">
	<path class="st0" d="M118.3,17.4L118.3,17.4c0.9,0,1.7,1.5,1.7,3.3l0,0c0,1.8-0.7,3.3-1.7,3.3l0,0c-0.9,0-1.7-1.5-1.7-3.3l0,0
		C116.7,18.9,117.4,17.4,118.3,17.4z	">
<animate  accumulate="none" additive="replace" attributeName="opacity" begin="-0.75s" calcMode="linear" dur="1s" fill="remove" keyTimes="0;1" repeatCount="indefinite" restart="always" values="1;0">
			</animate>
	</path>
</g>
<g transform="rotate(90 50 50)">
	<path class="st0" d="M100-14.3L100-14.3c0.9,0,1.7,1.5,1.7,3.3l0,0c0,1.8-0.7,3.3-1.7,3.3l0,0c-0.9,0-1.7-1.5-1.7-3.3l0,0
		C98.3-12.8,99.1-14.3,100-14.3z	">
<animate  accumulate="none" additive="replace" attributeName="opacity" begin="-0.6666666666666666s" calcMode="linear" dur="1s" fill="remove" keyTimes="0;1" repeatCount="indefinite" restart="always" values="1;0">
			</animate>
	</path>
</g>
<g transform="rotate(120 50 50)">
	<path class="st0" d="M68.3-32.6L68.3-32.6c0.9,0,1.7,1.5,1.7,3.3l0,0c0,1.8-0.7,3.3-1.7,3.3l0,0c-0.9,0-1.7-1.5-1.7-3.3l0,0
		C66.7-31.1,67.4-32.6,68.3-32.6z	">
<animate  accumulate="none" additive="replace" attributeName="opacity" begin="-0.5833333333333334s" calcMode="linear" dur="1s" fill="remove" keyTimes="0;1" repeatCount="indefinite" restart="always" values="1;0">
			</animate>
	</path>
</g>
<g transform="rotate(150 50 50)">
	<path class="st0" d="M31.7-32.6L31.7-32.6c0.9,0,1.7,1.5,1.7,3.3l0,0c0,1.8-0.7,3.3-1.7,3.3l0,0c-0.9,0-1.7-1.5-1.7-3.3l0,0
		C30-31.1,30.8-32.6,31.7-32.6z	">
<animate  accumulate="none" additive="replace" attributeName="opacity" begin="-0.5s" calcMode="linear" dur="1s" fill="remove" keyTimes="0;1" repeatCount="indefinite" restart="always" values="1;0">
			</animate>
	</path>
</g>
<g transform="rotate(180 50 50)">
	<path class="st0" d="M0-14.3L0-14.3c0.9,0,1.7,1.5,1.7,3.3l0,0c0,1.8-0.7,3.3-1.7,3.3l0,0c-0.9,0-1.7-1.5-1.7-3.3l0,0
		C-1.7-12.8-0.9-14.3,0-14.3z	">
<animate  accumulate="none" additive="replace" attributeName="opacity" begin="-0.4166666666666667s" calcMode="linear" dur="1s" fill="remove" keyTimes="0;1" repeatCount="indefinite" restart="always" values="1;0">
			</animate>
	</path>
</g>
<g transform="rotate(210 50 50)">
	<path class="st0" d="M-18.3,17.4L-18.3,17.4c0.9,0,1.7,1.5,1.7,3.3l0,0c0,1.8-0.7,3.3-1.7,3.3l0,0c-0.9,0-1.7-1.5-1.7-3.3l0,0
		C-20,18.9-19.2,17.4-18.3,17.4z	">
<animate  accumulate="none" additive="replace" attributeName="opacity" begin="-0.3333333333333333s" calcMode="linear" dur="1s" fill="remove" keyTimes="0;1" repeatCount="indefinite" restart="always" values="1;0">
			</animate>
	</path>
</g>
<g transform="rotate(240 50 50)">
	<path class="st0" d="M-18.3,54L-18.3,54c0.9,0,1.7,1.5,1.7,3.3l0,0c0,1.8-0.7,3.3-1.7,3.3l0,0c-0.9,0-1.7-1.5-1.7-3.3l0,0
		C-20,55.5-19.2,54-18.3,54z	">
<animate  accumulate="none" additive="replace" attributeName="opacity" begin="-0.25s" calcMode="linear" dur="1s" fill="remove" keyTimes="0;1" repeatCount="indefinite" restart="always" values="1;0">
			</animate>
	</path>
</g>
<g transform="rotate(270 50 50)">
	<path class="st0" d="M0,85.7L0,85.7c0.9,0,1.7,1.5,1.7,3.3l0,0c0,1.8-0.7,3.3-1.7,3.3l0,0c-0.9,0-1.7-1.5-1.7-3.3l0,0
		C-1.7,87.2-0.9,85.7,0,85.7z	">
<animate  accumulate="none" additive="replace" attributeName="opacity" begin="-0.16666666666666666s" calcMode="linear" dur="1s" fill="remove" keyTimes="0;1" repeatCount="indefinite" restart="always" values="1;0">
			</animate>
	</path>
</g>
<g transform="rotate(300 50 50)">
	<path class="st0" d="M31.7,104L31.7,104c0.9,0,1.7,1.5,1.7,3.3l0,0c0,1.8-0.7,3.3-1.7,3.3l0,0c-0.9,0-1.7-1.5-1.7-3.3l0,0
		C30,105.5,30.8,104,31.7,104z	">
<animate  accumulate="none" additive="replace" attributeName="opacity" begin="-0.08333333333333333s" calcMode="linear" dur="1s" fill="remove" keyTimes="0;1" repeatCount="indefinite" restart="always" values="1;0">
			</animate>
	</path>
</g>
<g transform="rotate(330 50 50)">
	<path class="st0" d="M68.3,104L68.3,104c0.9,0,1.7,1.5,1.7,3.3l0,0c0,1.8-0.7,3.3-1.7,3.3l0,0c-0.9,0-1.7-1.5-1.7-3.3l0,0
		C66.7,105.5,67.4,104,68.3,104z	">
<animate  accumulate="none" additive="replace" attributeName="opacity" begin="0s" calcMode="linear" dur="1s" fill="remove" keyTimes="0;1" repeatCount="indefinite" restart="always" values="1;0">
			</animate>
	</path>
</g>
</svg>
